STARTFONT 2.1
COMMENT
COMMENT Converted from OpenType font "Aldrich-Regular.ttf" by "otf2bdf 3.0".
COMMENT
FONT -FreeType-Aldrich-Medium-R-Normal--17-170-72-72-P-84-ISO10646-1
SIZE 17 72 72
FONTBOUNDINGBOX 20 22 -1 -7
STARTPROPERTIES 19
FOUNDRY "FreeType"
FAMILY_NAME "Aldrich"
WEIGHT_NAME "Medium"
SLANT "R"
SETWIDTH_NAME "Normal"
ADD_STYLE_NAME ""
PIXEL_SIZE 17
POINT_SIZE 170
RESOLUTION_X 72
RESOLUTION_Y 72
SPACING "P"
AVERAGE_WIDTH 84
CHARSET_REGISTRY "ISO10646"
CHARSET_ENCODING "1"
FONT_ASCENT 12
FONT_DESCENT 3
COPYRIGHT "Copyright (c) Matthew Desmond, 2011. All rights reserved."
_OTF_FONTFILE "Aldrich-Regular.ttf"
_OTF_PSNAME "Aldrich-Regular"
ENDPROPERTIES
CHARS 248
STARTCHAR 0020
ENCODING 32
SWIDTH 294 0
DWIDTH 5 0
BBX 0 0 0 0
BITMAP
ENDCHAR
STARTCHAR 0021
ENCODING 33
SWIDTH 294 0
DWIDTH 5 0
BBX 3 12 1 0
BITMAP
E0
C0
40
40
40
40
40
00
00
00
E0
E0
ENDCHAR
STARTCHAR 0022
ENCODING 34
SWIDTH 470 0
DWIDTH 8 0
BBX 6 6 1 6
BITMAP
EC
EC
CC
4C
4C
48
ENDCHAR
STARTCHAR 0023
ENCODING 35
SWIDTH 764 0
DWIDTH 13 0
BBX 10 12 2 0
BITMAP
3100
3100
3100
FFC0
2300
2300
2200
6200
FFC0
6600
4600
4600
ENDCHAR
STARTCHAR 0024
ENCODING 36
SWIDTH 705 0
DWIDTH 12 0
BBX 10 16 1 -2
BITMAP
0C00
0C00
7F80
FFC0
CCC0
CC00
CC00
FF80
7FC0
0CC0
0CC0
CCC0
FFC0
7F80
0C00
0C00
ENDCHAR
STARTCHAR 0025
ENCODING 37
SWIDTH 941 0
DWIDTH 16 0
BBX 14 12 1 0
BITMAP
7830
C820
C840
C8C0
C980
7900
037C
0644
0444
0844
1844
307C
ENDCHAR
STARTCHAR 0026
ENCODING 38
SWIDTH 764 0
DWIDTH 13 0
BBX 11 12 1 0
BITMAP
7F00
7F00
C180
C180
4000
7FE0
7FE0
C180
C180
C180
FFE0
7E60
ENDCHAR
STARTCHAR 0027
ENCODING 39
SWIDTH 294 0
DWIDTH 5 0
BBX 3 6 1 6
BITMAP
E0
E0
C0
40
40
40
ENDCHAR
STARTCHAR 0028
ENCODING 40
SWIDTH 411 0
DWIDTH 7 0
BBX 5 17 1 -4
BITMAP
38
78
60
C0
C0
C0
C0
C0
C0
C0
C0
C0
C0
C0
60
78
38
ENDCHAR
STARTCHAR 0029
ENCODING 41
SWIDTH 411 0
DWIDTH 7 0
BBX 4 17 1 -4
BITMAP
C0
F0
30
10
10
10
10
10
10
10
10
10
10
10
30
F0
C0
ENDCHAR
STARTCHAR 002A
ENCODING 42
SWIDTH 529 0
DWIDTH 9 0
BBX 7 7 1 5
BITMAP
10
10
D6
7C
38
2C
44
ENDCHAR
STARTCHAR 002B
ENCODING 43
SWIDTH 705 0
DWIDTH 12 0
BBX 10 9 1 0
BITMAP
0C00
0C00
0C00
FFC0
FFC0
0C00
0C00
0C00
0C00
ENDCHAR
STARTCHAR 002C
ENCODING 44
SWIDTH 294 0
DWIDTH 5 0
BBX 3 5 1 -3
BITMAP
E0
E0
60
40
C0
ENDCHAR
STARTCHAR 002D
ENCODING 45
SWIDTH 411 0
DWIDTH 7 0
BBX 4 2 1 4
BITMAP
F0
F0
ENDCHAR
STARTCHAR 002E
ENCODING 46
SWIDTH 294 0
DWIDTH 5 0
BBX 3 2 1 0
BITMAP
E0
E0
ENDCHAR
STARTCHAR 002F
ENCODING 47
SWIDTH 470 0
DWIDTH 8 0
BBX 6 14 1 -1
BITMAP
0C
08
18
18
10
30
30
20
60
60
40
C0
C0
80
ENDCHAR
STARTCHAR 0030
ENCODING 48
SWIDTH 705 0
DWIDTH 12 0
BBX 9 12 2 0
BITMAP
FF00
FF80
8180
8180
8180
8180
8180
8180
8180
8180
FF80
FF00
ENDCHAR
STARTCHAR 0031
ENCODING 49
SWIDTH 352 0
DWIDTH 6 0
BBX 4 12 0 0
BITMAP
F0
F0
10
10
10
10
10
10
10
10
10
10
ENDCHAR
STARTCHAR 0032
ENCODING 50
SWIDTH 705 0
DWIDTH 12 0
BBX 9 12 1 0
BITMAP
7F80
FF80
C180
0180
0180
0700
1C00
7000
C000
C080
FF80
FF80
ENDCHAR
STARTCHAR 0033
ENCODING 51
SWIDTH 647 0
DWIDTH 11 0
BBX 9 12 1 0
BITMAP
7F00
FF80
C180
C180
0180
1F00
1F80
0180
C180
C180
FF80
7F00
ENDCHAR
STARTCHAR 0034
ENCODING 52
SWIDTH 588 0
DWIDTH 10 0
BBX 10 12 0 0
BITMAP
0300
0700
0D00
0900
1900
3100
2100
4100
FFC0
FFC0
0100
0100
ENDCHAR
STARTCHAR 0035
ENCODING 53
SWIDTH 647 0
DWIDTH 11 0
BBX 9 12 1 0
BITMAP
FF80
FF80
C000
C000
FF00
FF80
0180
0180
C180
C180
FF80
7F00
ENDCHAR
STARTCHAR 0036
ENCODING 54
SWIDTH 705 0
DWIDTH 12 0
BBX 8 12 2 0
BITMAP
FF
FF
81
80
80
FF
FF
81
81
81
FF
FF
ENDCHAR
STARTCHAR 0037
ENCODING 55
SWIDTH 588 0
DWIDTH 10 0
BBX 9 12 1 0
BITMAP
FF80
FF00
0300
0200
0600
0C00
0C00
1800
1800
3000
3000
6000
ENDCHAR
STARTCHAR 0038
ENCODING 56
SWIDTH 705 0
DWIDTH 12 0
BBX 10 12 1 0
BITMAP
7F00
7F80
C080
C080
4080
7F00
7F80
C080
C0C0
C0C0
FF80
7F80
ENDCHAR
STARTCHAR 0039
ENCODING 57
SWIDTH 705 0
DWIDTH 12 0
BBX 8 12 2 0
BITMAP
FF
FF
81
81
81
FF
FF
01
01
81
FF
FF
ENDCHAR
STARTCHAR 003A
ENCODING 58
SWIDTH 294 0
DWIDTH 5 0
BBX 3 9 1 0
BITMAP
E0
E0
00
00
00
00
00
E0
E0
ENDCHAR
STARTCHAR 003B
ENCODING 59
SWIDTH 294 0
DWIDTH 5 0
BBX 3 12 1 -3
BITMAP
E0
E0
00
00
00
00
00
E0
E0
60
40
C0
ENDCHAR
STARTCHAR 003C
ENCODING 60
SWIDTH 647 0
DWIDTH 11 0
BBX 9 10 1 0
BITMAP
0080
0380
1E00
7800
E000
E000
7800
1E00
0380
0080
ENDCHAR
STARTCHAR 003D
ENCODING 61
SWIDTH 705 0
DWIDTH 12 0
BBX 10 6 1 2
BITMAP
FFC0
FFC0
0000
0000
FFC0
FFC0
ENDCHAR
STARTCHAR 003E
ENCODING 62
SWIDTH 647 0
DWIDTH 11 0
BBX 10 10 1 0
BITMAP
8000
F000
3C00
0F00
01C0
01C0
0F00
3C00
F000
8000
ENDCHAR
STARTCHAR 003F
ENCODING 63
SWIDTH 588 0
DWIDTH 10 0
BBX 8 12 1 0
BITMAP
FE
FE
C3
02
0E
1C
30
30
00
00
38
38
ENDCHAR
STARTCHAR 0040
ENCODING 64
SWIDTH 1058 0
DWIDTH 18 0
BBX 15 16 2 -4
BITMAP
3FF8
FFFC
C00C
8F64
9FE6
9866
9866
9866
9866
9866
9FFC
8F7C
8000
C000
FFF0
3FF0
ENDCHAR
STARTCHAR 0041
ENCODING 65
SWIDTH 705 0
DWIDTH 12 0
BBX 11 12 0 0
BITMAP
0600
0600
0F00
0900
1980
1180
1080
3FC0
3FC0
6040
6060
C020
ENDCHAR
STARTCHAR 0042
ENCODING 66
SWIDTH 705 0
DWIDTH 12 0
BBX 9 12 2 0
BITMAP
FF00
FF00
8180
8180
8100
FF00
FF00
8180
8180
8180
FF80
FF00
ENDCHAR
STARTCHAR 0043
ENCODING 67
SWIDTH 764 0
DWIDTH 13 0
BBX 9 12 2 0
BITMAP
FF80
FF80
8080
8000
8000
8000
8000
8000
8000
8080
FF80
FF80
ENDCHAR
STARTCHAR 0044
ENCODING 68
SWIDTH 764 0
DWIDTH 13 0
BBX 10 12 2 0
BITMAP
FF00
FF80
8180
80C0
80C0
80C0
80C0
80C0
80C0
8180
FF80
FF00
ENDCHAR
STARTCHAR 0045
ENCODING 69
SWIDTH 647 0
DWIDTH 11 0
BBX 8 12 2 0
BITMAP
FF
FF
80
80
80
FE
FE
80
80
80
FF
FF
ENDCHAR
STARTCHAR 0046
ENCODING 70
SWIDTH 647 0
DWIDTH 11 0
BBX 8 12 2 0
BITMAP
FF
FF
80
80
80
FE
FE
80
80
80
80
80
ENDCHAR
STARTCHAR 0047
ENCODING 71
SWIDTH 764 0
DWIDTH 13 0
BBX 9 12 2 0
BITMAP
FF80
FF80
8080
8000
8000
8000
8F80
8F80
8080
8080
FF80
FF80
ENDCHAR
STARTCHAR 0048
ENCODING 72
SWIDTH 764 0
DWIDTH 13 0
BBX 10 12 2 0
BITMAP
80C0
80C0
80C0
80C0
80C0
FFC0
FFC0
80C0
80C0
80C0
80C0
80C0
ENDCHAR
STARTCHAR 0049
ENCODING 73
SWIDTH 294 0
DWIDTH 5 0
BBX 1 12 2 0
BITMAP
80
80
80
80
80
80
80
80
80
80
80
80
ENDCHAR
STARTCHAR 004A
ENCODING 74
SWIDTH 647 0
DWIDTH 11 0
BBX 8 12 1 0
BITMAP
01
01
01
01
01
01
01
01
C1
C1
FF
7F
ENDCHAR
STARTCHAR 004B
ENCODING 75
SWIDTH 705 0
DWIDTH 12 0
BBX 10 12 2 0
BITMAP
8380
8700
8E00
9800
B000
E000
F000
B800
9C00
8E00
8300
81C0
ENDCHAR
STARTCHAR 004C
ENCODING 76
SWIDTH 588 0
DWIDTH 10 0
BBX 7 12 2 0
BITMAP
80
80
80
80
80
80
80
80
80
80
FE
FE
ENDCHAR
STARTCHAR 004D
ENCODING 77
SWIDTH 941 0
DWIDTH 16 0
BBX 12 12 2 0
BITMAP
C030
C030
E070
E050
B0D0
B090
9990
9910
8F10
8E10
8610
8410
ENDCHAR
STARTCHAR 004E
ENCODING 78
SWIDTH 823 0
DWIDTH 14 0
BBX 10 12 2 0
BITMAP
C0C0
C0C0
E0C0
B0C0
98C0
98C0
8CC0
86C0
83C0
83C0
81C0
80C0
ENDCHAR
STARTCHAR 004F
ENCODING 79
SWIDTH 764 0
DWIDTH 13 0
BBX 10 12 2 0
BITMAP
FF80
FFC0
80C0
80C0
80C0
80C0
80C0
80C0
80C0
80C0
FFC0
FF80
ENDCHAR
STARTCHAR 0050
ENCODING 80
SWIDTH 705 0
DWIDTH 12 0
BBX 9 12 2 0
BITMAP
FF00
FF80
8180
8180
8180
8180
FF80
FF00
8000
8000
8000
8000
ENDCHAR
STARTCHAR 0051
ENCODING 81
SWIDTH 764 0
DWIDTH 13 0
BBX 10 14 2 -2
BITMAP
FF80
FFC0
80C0
80C0
80C0
80C0
80C0
80C0
80C0
88C0
FFC0
FF80
0800
0800
ENDCHAR
STARTCHAR 0052
ENCODING 82
SWIDTH 705 0
DWIDTH 12 0
BBX 9 12 2 0
BITMAP
FF00
FF80
8180
8180
8180
FF80
FF00
8600
8200
8300
8100
8180
ENDCHAR
STARTCHAR 0053
ENCODING 83
SWIDTH 705 0
DWIDTH 12 0
BBX 10 12 1 0
BITMAP
7F80
7FC0
40C0
4000
4000
7F80
7FC0
00C0
00C0
C0C0
FFC0
7F80
ENDCHAR
STARTCHAR 0054
ENCODING 84
SWIDTH 647 0
DWIDTH 11 0
BBX 10 12 0 0
BITMAP
FFC0
FFC0
0C00
0C00
0C00
0C00
0C00
0C00
0C00
0C00
0C00
0C00
ENDCHAR
STARTCHAR 0055
ENCODING 85
SWIDTH 764 0
DWIDTH 13 0
BBX 10 12 2 0
BITMAP
80C0
80C0
80C0
80C0
80C0
80C0
80C0
80C0
80C0
80C0
FFC0
FF80
ENDCHAR
STARTCHAR 0056
ENCODING 86
SWIDTH 705 0
DWIDTH 12 0
BBX 12 12 0 0
BITMAP
E030
6060
6060
30C0
30C0
1080
1980
1980
0D00
0F00
0700
0600
ENDCHAR
STARTCHAR 0057
ENCODING 87
SWIDTH 1000 0
DWIDTH 17 0
BBX 16 12 0 0
BITMAP
C183
61C3
61C2
61C6
2346
3366
3264
162C
1E3C
1C38
1C38
0C18
ENDCHAR
STARTCHAR 0058
ENCODING 88
SWIDTH 705 0
DWIDTH 12 0
BBX 11 12 0 0
BITMAP
6060
30C0
3180
1980
0F00
0E00
0E00
0F00
1980
3180
30C0
E060
ENDCHAR
STARTCHAR 0059
ENCODING 89
SWIDTH 705 0
DWIDTH 12 0
BBX 11 12 0 0
BITMAP
E060
60C0
30C0
1180
1B00
0F00
0E00
0600
0600
0600
0600
0600
ENDCHAR
STARTCHAR 005A
ENCODING 90
SWIDTH 705 0
DWIDTH 12 0
BBX 10 12 1 0
BITMAP
FFC0
FF80
0300
0200
0600
0C00
0800
1800
3000
6000
7FC0
FFC0
ENDCHAR
STARTCHAR 005B
ENCODING 91
SWIDTH 411 0
DWIDTH 7 0
BBX 4 17 2 -4
BITMAP
F0
F0
80
80
80
80
80
80
80
80
80
80
80
80
80
F0
F0
ENDCHAR
STARTCHAR 005C
ENCODING 92
SWIDTH 470 0
DWIDTH 8 0
BBX 6 14 1 -1
BITMAP
80
C0
40
40
60
60
20
30
30
10
18
18
08
0C
ENDCHAR
STARTCHAR 005D
ENCODING 93
SWIDTH 411 0
DWIDTH 7 0
BBX 4 17 1 -4
BITMAP
F0
F0
10
10
10
10
10
10
10
10
10
10
10
10
10
F0
F0
ENDCHAR
STARTCHAR 005E
ENCODING 94
SWIDTH 529 0
DWIDTH 9 0
BBX 8 5 1 7
BITMAP
18
3C
64
46
C3
ENDCHAR
STARTCHAR 005F
ENCODING 95
SWIDTH 647 0
DWIDTH 11 0
BBX 11 1 0 -5
BITMAP
FFE0
ENDCHAR
STARTCHAR 0060
ENCODING 96
SWIDTH 352 0
DWIDTH 6 0
BBX 4 2 1 10
BITMAP
E0
30
ENDCHAR
STARTCHAR 0061
ENCODING 97
SWIDTH 588 0
DWIDTH 10 0
BBX 8 9 1 0
BITMAP
7E
7F
03
7F
FF
C3
C3
FF
7F
ENDCHAR
STARTCHAR 0062
ENCODING 98
SWIDTH 647 0
DWIDTH 11 0
BBX 8 12 1 0
BITMAP
C0
C0
C0
DF
FF
C1
C1
C1
C1
C1
FF
7F
ENDCHAR
STARTCHAR 0063
ENCODING 99
SWIDTH 588 0
DWIDTH 10 0
BBX 8 9 1 0
BITMAP
7E
FF
C3
C0
C0
C0
C3
FF
7E
ENDCHAR
STARTCHAR 0064
ENCODING 100
SWIDTH 647 0
DWIDTH 11 0
BBX 8 12 1 0
BITMAP
01
01
01
7F
FF
C1
C1
C1
C1
C1
FF
7D
ENDCHAR
STARTCHAR 0065
ENCODING 101
SWIDTH 588 0
DWIDTH 10 0
BBX 8 9 1 0
BITMAP
7E
FF
C3
C3
FF
FF
C0
FF
7F
ENDCHAR
STARTCHAR 0066
ENCODING 102
SWIDTH 470 0
DWIDTH 8 0
BBX 7 12 1 0
BITMAP
3E
3E
30
FE
FE
30
30
30
30
30
30
30
ENDCHAR
STARTCHAR 0067
ENCODING 103
SWIDTH 647 0
DWIDTH 11 0
BBX 8 13 1 -4
BITMAP
7D
FD
C3
C1
C1
C1
C1
FF
7F
01
01
7F
7F
ENDCHAR
STARTCHAR 0068
ENCODING 104
SWIDTH 647 0
DWIDTH 11 0
BBX 8 12 1 0
BITMAP
C0
C0
C0
DF
FF
C1
C1
C1
C1
C1
C1
C1
ENDCHAR
STARTCHAR 0069
ENCODING 105
SWIDTH 294 0
DWIDTH 5 0
BBX 2 12 1 0
BITMAP
C0
C0
00
C0
C0
C0
C0
C0
C0
C0
C0
C0
ENDCHAR
STARTCHAR 006A
ENCODING 106
SWIDTH 294 0
DWIDTH 5 0
BBX 3 16 0 -4
BITMAP
60
60
00
60
60
60
60
60
60
60
60
60
60
60
E0
E0
ENDCHAR
STARTCHAR 006B
ENCODING 107
SWIDTH 529 0
DWIDTH 9 0
BBX 9 12 1 0
BITMAP
C000
C000
C000
C300
C600
DC00
F800
E000
F800
DC00
CE00
C380
ENDCHAR
STARTCHAR 006C
ENCODING 108
SWIDTH 235 0
DWIDTH 4 0
BBX 2 12 1 0
BITMAP
C0
C0
C0
C0
C0
C0
C0
C0
C0
C0
C0
C0
ENDCHAR
STARTCHAR 006D
ENCODING 109
SWIDTH 882 0
DWIDTH 15 0
BBX 13 9 1 0
BITMAP
DEF0
FFF8
C218
C218
C218
C218
C218
C218
C218
ENDCHAR
STARTCHAR 006E
ENCODING 110
SWIDTH 647 0
DWIDTH 11 0
BBX 8 9 1 0
BITMAP
DF
FF
C1
C1
C1
C1
C1
C1
C1
ENDCHAR
STARTCHAR 006F
ENCODING 111
SWIDTH 588 0
DWIDTH 10 0
BBX 8 9 1 0
BITMAP
7F
FF
C3
C3
C3
C3
C3
FF
7F
ENDCHAR
STARTCHAR 0070
ENCODING 112
SWIDTH 647 0
DWIDTH 11 0
BBX 8 13 1 -4
BITMAP
DF
FF
C1
C1
C1
C1
C1
FF
FF
C0
C0
C0
C0
ENDCHAR
STARTCHAR 0071
ENCODING 113
SWIDTH 647 0
DWIDTH 11 0
BBX 8 13 1 -4
BITMAP
7F
FF
C1
C1
C1
C1
C1
FF
7D
01
01
01
01
ENDCHAR
STARTCHAR 0072
ENCODING 114
SWIDTH 529 0
DWIDTH 9 0
BBX 7 9 1 0
BITMAP
FE
FE
C6
C0
C0
C0
C0
C0
C0
ENDCHAR
STARTCHAR 0073
ENCODING 115
SWIDTH 588 0
DWIDTH 10 0
BBX 7 9 1 0
BITMAP
7E
FE
C0
FE
7E
02
02
FE
FE
ENDCHAR
STARTCHAR 0074
ENCODING 116
SWIDTH 529 0
DWIDTH 9 0
BBX 7 12 1 0
BITMAP
30
30
30
FE
FE
30
30
30
30
30
3E
3E
ENDCHAR
STARTCHAR 0075
ENCODING 117
SWIDTH 647 0
DWIDTH 11 0
BBX 8 9 1 0
BITMAP
C1
C1
C1
C1
C1
C1
C1
FF
7D
ENDCHAR
STARTCHAR 0076
ENCODING 118
SWIDTH 529 0
DWIDTH 9 0
BBX 9 9 0 0
BITMAP
C180
6180
6300
2300
3200
1600
1E00
1C00
0C00
ENDCHAR
STARTCHAR 0077
ENCODING 119
SWIDTH 823 0
DWIDTH 14 0
BBX 13 9 0 0
BITMAP
C308
4318
6718
6790
25B0
3CB0
3CE0
18E0
1860
ENDCHAR
STARTCHAR 0078
ENCODING 120
SWIDTH 588 0
DWIDTH 10 0
BBX 9 9 0 0
BITMAP
6180
3300
3600
1E00
0C00
1E00
3600
3300
E180
ENDCHAR
STARTCHAR 0079
ENCODING 121
SWIDTH 529 0
DWIDTH 9 0
BBX 9 13 0 -4
BITMAP
C180
6100
6300
2200
3600
1600
1C00
1C00
0800
1800
1800
1000
3000
ENDCHAR
STARTCHAR 007A
ENCODING 122
SWIDTH 588 0
DWIDTH 10 0
BBX 8 9 1 0
BITMAP
FF
FE
0C
08
18
30
20
7F
FF
ENDCHAR
STARTCHAR 007B
ENCODING 123
SWIDTH 411 0
DWIDTH 7 0
BBX 6 17 0 -4
BITMAP
1C
3C
30
30
30
30
30
E0
E0
30
30
30
30
30
30
3C
1C
ENDCHAR
STARTCHAR 007C
ENCODING 124
SWIDTH 294 0
DWIDTH 5 0
BBX 1 17 2 -4
BITMAP
80
80
80
80
80
80
80
80
80
80
80
80
80
80
80
80
80
ENDCHAR
STARTCHAR 007D
ENCODING 125
SWIDTH 411 0
DWIDTH 7 0
BBX 5 17 1 -4
BITMAP
C0
E0
30
30
30
30
30
38
38
30
30
30
30
30
30
E0
C0
ENDCHAR
STARTCHAR 007E
ENCODING 126
SWIDTH 588 0
DWIDTH 10 0
BBX 8 3 1 4
BITMAP
73
FF
CE
ENDCHAR
STARTCHAR 00A0
ENCODING 160
SWIDTH 294 0
DWIDTH 5 0
BBX 0 0 0 0
BITMAP
ENDCHAR
STARTCHAR 00A1
ENCODING 161
SWIDTH 294 0
DWIDTH 5 0
BBX 3 12 1 -4
BITMAP
E0
E0
00
00
00
40
40
40
40
40
C0
E0
ENDCHAR
STARTCHAR 00A2
ENCODING 162
SWIDTH 588 0
DWIDTH 10 0
BBX 8 13 1 -2
BITMAP
18
18
7E
FF
C3
C0
C0
C0
C3
FF
7E
18
18
ENDCHAR
STARTCHAR 00A3
ENCODING 163
SWIDTH 705 0
DWIDTH 12 0
BBX 10 12 1 0
BITMAP
3F80
3F80
6080
6000
6000
6000
FE00
6000
60C0
60C0
FFC0
EFC0
ENDCHAR
STARTCHAR 00A4
ENCODING 164
SWIDTH 647 0
DWIDTH 11 0
BBX 9 8 1 2
BITMAP
5D00
FF80
6300
6300
6300
6300
7F00
DD80
ENDCHAR
STARTCHAR 00A5
ENCODING 165
SWIDTH 705 0
DWIDTH 12 0
BBX 11 12 0 0
BITMAP
E060
60C0
30C0
1180
1B00
0F00
7FC0
0600
0600
7FC0
0600
0600
ENDCHAR
STARTCHAR 00A6
ENCODING 166
SWIDTH 294 0
DWIDTH 5 0
BBX 1 17 2 -4
BITMAP
80
80
80
80
80
80
80
00
00
00
80
80
80
80
80
80
80
ENDCHAR
STARTCHAR 00A7
ENCODING 167
SWIDTH 705 0
DWIDTH 12 0
BBX 8 16 2 -4
BITMAP
FF
FF
83
80
80
FF
FF
83
83
83
FF
FF
03
83
FF
FF
ENDCHAR
STARTCHAR 00A8
ENCODING 168
SWIDTH 411 0
DWIDTH 7 0
BBX 5 2 1 10
BITMAP
D8
D8
ENDCHAR
STARTCHAR 00A9
ENCODING 169
SWIDTH 823 0
DWIDTH 14 0
BBX 12 12 1 0
BITMAP
1F80
30C0
4020
DFB0
9190
9010
9010
9190
DFB0
4020
30C0
1F80
ENDCHAR
STARTCHAR 00AA
ENCODING 170
SWIDTH 470 0
DWIDTH 8 0
BBX 5 9 1 3
BITMAP
78
08
08
F8
88
F8
00
00
F8
ENDCHAR
STARTCHAR 00AB
ENCODING 171
SWIDTH 529 0
DWIDTH 9 0
BBX 7 8 1 0
BITMAP
12
32
66
CC
DC
66
32
12
ENDCHAR
STARTCHAR 00AC
ENCODING 172
SWIDTH 705 0
DWIDTH 12 0
BBX 10 5 1 2
BITMAP
FFC0
FFC0
00C0
00C0
00C0
ENDCHAR
STARTCHAR 00AE
ENCODING 174
SWIDTH 823 0
DWIDTH 14 0
BBX 12 12 1 0
BITMAP
1F80
30C0
4020
DF30
9990
9990
9F10
9B10
D930
59A0
30C0
1F80
ENDCHAR
STARTCHAR 00AF
ENCODING 175
SWIDTH 470 0
DWIDTH 8 0
BBX 6 1 1 11
BITMAP
FC
ENDCHAR
STARTCHAR 00B0
ENCODING 176
SWIDTH 411 0
DWIDTH 7 0
BBX 5 5 1 7
BITMAP
70
C8
88
C8
70
ENDCHAR
STARTCHAR 00B1
ENCODING 177
SWIDTH 705 0
DWIDTH 12 0
BBX 10 9 1 0
BITMAP
0C00
0C00
0C00
FFC0
FFC0
0C00
0C00
FFC0
FFC0
ENDCHAR
STARTCHAR 00B2
ENCODING 178
SWIDTH 411 0
DWIDTH 7 0
BBX 5 6 1 6
BITMAP
F8
88
38
E0
88
F8
ENDCHAR
STARTCHAR 00B3
ENCODING 179
SWIDTH 411 0
DWIDTH 7 0
BBX 5 6 1 6
BITMAP
F8
88
08
38
88
F8
ENDCHAR
STARTCHAR 00B4
ENCODING 180
SWIDTH 352 0
DWIDTH 6 0
BBX 4 2 1 10
BITMAP
70
C0
ENDCHAR
STARTCHAR 00B5
ENCODING 181
SWIDTH 588 0
DWIDTH 10 0
BBX 8 13 1 -4
BITMAP
C1
C1
C1
C1
C1
C1
C1
FF
FD
C0
C0
C0
C0
ENDCHAR
STARTCHAR 00B6
ENCODING 182
SWIDTH 705 0
DWIDTH 12 0
BBX 9 16 1 -4
BITMAP
7F80
FF80
FC80
FC80
FC80
FC80
FC80
7C80
0C80
0C80
0C80
0C80
0C80
0C80
0C80
0C80
ENDCHAR
STARTCHAR 00B7
ENCODING 183
SWIDTH 294 0
DWIDTH 5 0
BBX 3 2 1 5
BITMAP
E0
E0
ENDCHAR
STARTCHAR 00B8
ENCODING 184
SWIDTH 529 0
DWIDTH 9 0
BBX 4 4 2 -4
BITMAP
20
60
B0
E0
ENDCHAR
STARTCHAR 00B9
ENCODING 185
SWIDTH 235 0
DWIDTH 4 0
BBX 2 6 1 6
BITMAP
C0
40
40
40
40
40
ENDCHAR
STARTCHAR 00BA
ENCODING 186
SWIDTH 470 0
DWIDTH 8 0
BBX 5 9 1 3
BITMAP
F8
88
88
88
88
F8
00
00
F8
ENDCHAR
STARTCHAR 00BB
ENCODING 187
SWIDTH 529 0
DWIDTH 9 0
BBX 8 8 1 0
BITMAP
90
C8
64
36
37
64
C8
90
ENDCHAR
STARTCHAR 00BC
ENCODING 188
SWIDTH 764 0
DWIDTH 13 0
BBX 11 12 1 0
BITMAP
C0C0
4180
4100
4200
4600
4400
0840
18C0
1140
2240
63E0
C040
ENDCHAR
STARTCHAR 00BD
ENCODING 189
SWIDTH 823 0
DWIDTH 14 0
BBX 12 12 1 0
BITMAP
C0C0
4180
4100
4200
4600
4400
08F0
1990
1030
20E0
6190
C1F0
ENDCHAR
STARTCHAR 00BE
ENCODING 190
SWIDTH 941 0
DWIDTH 16 0
BBX 14 12 1 0
BITMAP
7830
8820
0840
38C0
8880
F900
0318
0238
0428
0C48
08FC
1808
ENDCHAR
STARTCHAR 00BF
ENCODING 191
SWIDTH 588 0
DWIDTH 10 0
BBX 8 12 1 -4
BITMAP
18
18
00
00
18
18
38
E0
C0
C3
FE
7E
ENDCHAR
STARTCHAR 00C0
ENCODING 192
SWIDTH 705 0
DWIDTH 12 0
BBX 11 15 0 0
BITMAP
1C00
0600
0000
0600
0600
0F00
0900
1900
1180
1080
3FC0
3FC0
6040
6060
C020
ENDCHAR
STARTCHAR 00C1
ENCODING 193
SWIDTH 705 0
DWIDTH 12 0
BBX 11 15 0 0
BITMAP
0380
0600
0800
0600
0600
0F00
0900
1900
1180
1080
3FC0
3FC0
6040
6060
C020
ENDCHAR
STARTCHAR 00C2
ENCODING 194
SWIDTH 705 0
DWIDTH 12 0
BBX 11 15 0 0
BITMAP
0E00
1900
0080
0600
0600
0F00
0900
1900
1180
1080
3FC0
3FC0
6040
6060
C020
ENDCHAR
STARTCHAR 00C3
ENCODING 195
SWIDTH 705 0
DWIDTH 12 0
BBX 11 15 0 0
BITMAP
1F80
0000
0000
0600
0600
0F00
0900
1900
1180
1080
3FC0
3FC0
6040
6060
C020
ENDCHAR
STARTCHAR 00C4
ENCODING 196
SWIDTH 705 0
DWIDTH 12 0
BBX 11 15 0 0
BITMAP
1980
1980
0000
0600
0600
0F00
0900
1900
1180
1080
3FC0
3FC0
6040
6060
C020
ENDCHAR
STARTCHAR 00C5
ENCODING 197
SWIDTH 705 0
DWIDTH 12 0
BBX 11 15 0 0
BITMAP
0E00
0900
0900
0F00
0600
0F00
0900
1900
1180
1080
3FC0
3FC0
6040
6060
C020
ENDCHAR
STARTCHAR 00C6
ENCODING 198
SWIDTH 1176 0
DWIDTH 20 0
BBX 19 12 0 0
BITMAP
007FE0
00FFE0
01B000
013000
033000
063FC0
0C3FC0
1FF000
1FF000
303000
603FE0
C03FE0
ENDCHAR
STARTCHAR 00C7
ENCODING 199
SWIDTH 764 0
DWIDTH 13 0
BBX 9 16 2 -4
BITMAP
FF80
FF80
8080
8000
8000
8000
8000
8000
8000
8080
FF80
FF80
0800
1C00
0400
1C00
ENDCHAR
STARTCHAR 00C8
ENCODING 200
SWIDTH 647 0
DWIDTH 11 0
BBX 8 15 2 0
BITMAP
70
18
00
FF
FF
80
80
80
FE
FE
80
80
80
FF
FF
ENDCHAR
STARTCHAR 00C9
ENCODING 201
SWIDTH 647 0
DWIDTH 11 0
BBX 8 15 2 0
BITMAP
1C
30
00
FF
FF
80
80
80
FE
FE
80
80
80
FF
FF
ENDCHAR
STARTCHAR 00CA
ENCODING 202
SWIDTH 647 0
DWIDTH 11 0
BBX 8 15 2 0
BITMAP
38
64
02
FF
FF
80
80
80
FE
FE
80
80
80
FF
FF
ENDCHAR
STARTCHAR 00CB
ENCODING 203
SWIDTH 647 0
DWIDTH 11 0
BBX 8 15 2 0
BITMAP
66
66
00
FF
FF
80
80
80
FE
FE
80
80
80
FF
FF
ENDCHAR
STARTCHAR 00CC
ENCODING 204
SWIDTH 294 0
DWIDTH 5 0
BBX 4 15 0 0
BITMAP
E0
30
00
20
20
20
20
20
20
20
20
20
20
20
20
ENDCHAR
STARTCHAR 00CD
ENCODING 205
SWIDTH 294 0
DWIDTH 5 0
BBX 4 15 1 0
BITMAP
70
C0
00
40
40
40
40
40
40
40
40
40
40
40
40
ENDCHAR
STARTCHAR 00CE
ENCODING 206
SWIDTH 294 0
DWIDTH 5 0
BBX 6 15 -1 0
BITMAP
38
6C
80
10
10
10
10
10
10
10
10
10
10
10
10
ENDCHAR
STARTCHAR 00CF
ENCODING 207
SWIDTH 294 0
DWIDTH 5 0
BBX 5 15 0 0
BITMAP
D8
D8
00
20
20
20
20
20
20
20
20
20
20
20
20
ENDCHAR
STARTCHAR 00D0
ENCODING 208
SWIDTH 764 0
DWIDTH 13 0
BBX 12 12 0 0
BITMAP
3FC0
3FE0
3030
3030
3030
3030
FE30
3030
3030
3030
3FE0
3FC0
ENDCHAR
STARTCHAR 00D1
ENCODING 209
SWIDTH 823 0
DWIDTH 14 0
BBX 10 15 2 0
BITMAP
3F00
0000
0000
C0C0
C0C0
E0C0
B0C0
98C0
98C0
8CC0
86C0
83C0
83C0
81C0
80C0
ENDCHAR
STARTCHAR 00D2
ENCODING 210
SWIDTH 764 0
DWIDTH 13 0
BBX 10 15 2 0
BITMAP
3800
0C00
0000
FF80
FFC0
80C0
80C0
80C0
80C0
80C0
80C0
80C0
80C0
FFC0
FF80
ENDCHAR
STARTCHAR 00D3
ENCODING 211
SWIDTH 764 0
DWIDTH 13 0
BBX 10 15 2 0
BITMAP
0E00
1800
0000
FF80
FFC0
80C0
80C0
80C0
80C0
80C0
80C0
80C0
80C0
FFC0
FF80
ENDCHAR
STARTCHAR 00D4
ENCODING 212
SWIDTH 764 0
DWIDTH 13 0
BBX 10 15 2 0
BITMAP
1C00
3600
0100
FF80
FFC0
80C0
80C0
80C0
80C0
80C0
80C0
80C0
80C0
FFC0
FF80
ENDCHAR
STARTCHAR 00D5
ENCODING 213
SWIDTH 764 0
DWIDTH 13 0
BBX 10 15 2 0
BITMAP
3F00
4000
0000
FF80
FFC0
80C0
80C0
80C0
80C0
80C0
80C0
80C0
80C0
FFC0
FF80
ENDCHAR
STARTCHAR 00D6
ENCODING 214
SWIDTH 764 0
DWIDTH 13 0
BBX 10 15 2 0
BITMAP
3600
3600
0000
FF80
FFC0
80C0
80C0
80C0
80C0
80C0
80C0
80C0
80C0
FFC0
FF80
ENDCHAR
STARTCHAR 00D7
ENCODING 215
SWIDTH 647 0
DWIDTH 11 0
BBX 9 9 1 0
BITMAP
4080
E180
7300
3E00
1C00
3E00
7300
E180
4080
ENDCHAR
STARTCHAR 00D8
ENCODING 216
SWIDTH 764 0
DWIDTH 13 0
BBX 10 16 2 -2
BITMAP
00C0
0080
FF80
FFC0
82C0
86C0
84C0
8CC0
88C0
90C0
B0C0
A0C0
FFC0
FF80
C000
8000
ENDCHAR
STARTCHAR 00D9
ENCODING 217
SWIDTH 764 0
DWIDTH 13 0
BBX 10 15 2 0
BITMAP
3800
0C00
0000
80C0
80C0
80C0
80C0
80C0
80C0
80C0
80C0
80C0
80C0
FFC0
FF80
ENDCHAR
STARTCHAR 00DA
ENCODING 218
SWIDTH 764 0
DWIDTH 13 0
BBX 10 15 2 0
BITMAP
0700
0800
1000
80C0
80C0
80C0
80C0
80C0
80C0
80C0
80C0
80C0
80C0
FFC0
FF80
ENDCHAR
STARTCHAR 00DB
ENCODING 219
SWIDTH 764 0
DWIDTH 13 0
BBX 10 15 2 0
BITMAP
1C00
3600
0100
80C0
80C0
80C0
80C0
80C0
80C0
80C0
80C0
80C0
80C0
FFC0
FF80
ENDCHAR
STARTCHAR 00DC
ENCODING 220
SWIDTH 764 0
DWIDTH 13 0
BBX 10 15 2 0
BITMAP
3600
3600
0000
80C0
80C0
80C0
80C0
80C0
80C0
80C0
80C0
80C0
80C0
FFC0
FF80
ENDCHAR
STARTCHAR 00DD
ENCODING 221
SWIDTH 705 0
DWIDTH 12 0
BBX 11 15 0 0
BITMAP
0380
0600
0000
C060
6040
30C0
3180
1900
0F00
0E00
0600
0600
0600
0600
0600
ENDCHAR
STARTCHAR 00DE
ENCODING 222
SWIDTH 705 0
DWIDTH 12 0
BBX 9 12 2 0
BITMAP
8000
8000
FF00
FF80
8180
8180
8180
FF80
FF00
8000
8000
8000
ENDCHAR
STARTCHAR 00DF
ENCODING 223
SWIDTH 647 0
DWIDTH 11 0
BBX 8 12 2 0
BITMAP
FE
FF
83
86
98
90
9F
9F
81
81
9F
9F
ENDCHAR
STARTCHAR 00E0
ENCODING 224
SWIDTH 588 0
DWIDTH 10 0
BBX 8 12 1 0
BITMAP
70
18
04
7E
7F
03
7F
FF
C3
C3
FF
7F
ENDCHAR
STARTCHAR 00E1
ENCODING 225
SWIDTH 588 0
DWIDTH 10 0
BBX 8 12 1 0
BITMAP
0E
18
00
7E
7F
03
7F
FF
C3
C3
FF
7F
ENDCHAR
STARTCHAR 00E2
ENCODING 226
SWIDTH 588 0
DWIDTH 10 0
BBX 8 12 1 0
BITMAP
1C
36
40
7E
7F
03
7F
FF
C3
C3
FF
7F
ENDCHAR
STARTCHAR 00E3
ENCODING 227
SWIDTH 588 0
DWIDTH 10 0
BBX 8 12 1 0
BITMAP
7F
00
00
7E
7F
03
7F
FF
C3
C3
FF
7F
ENDCHAR
STARTCHAR 00E4
ENCODING 228
SWIDTH 588 0
DWIDTH 10 0
BBX 8 12 1 0
BITMAP
26
26
00
7E
7F
03
7F
FF
C3
C3
FF
7F
ENDCHAR
STARTCHAR 00E5
ENCODING 229
SWIDTH 588 0
DWIDTH 10 0
BBX 8 14 1 0
BITMAP
1C
24
26
1C
00
7E
7F
03
7F
FF
C3
C3
FF
7F
ENDCHAR
STARTCHAR 00E6
ENCODING 230
SWIDTH 941 0
DWIDTH 16 0
BBX 14 9 1 0
BITMAP
7FF8
7FFC
030C
7F0C
FFFC
C3FC
C300
FFFC
7DFC
ENDCHAR
STARTCHAR 00E7
ENCODING 231
SWIDTH 588 0
DWIDTH 10 0
BBX 8 13 1 -4
BITMAP
7E
FF
C3
C0
C0
C0
C3
FF
7E
18
1C
2C
38
ENDCHAR
STARTCHAR 00E8
ENCODING 232
SWIDTH 588 0
DWIDTH 10 0
BBX 8 12 1 0
BITMAP
70
18
04
7E
FF
C3
C3
FF
FF
C0
FF
7F
ENDCHAR
STARTCHAR 00E9
ENCODING 233
SWIDTH 588 0
DWIDTH 10 0
BBX 8 12 1 0
BITMAP
0E
18
00
7E
FF
C3
C3
FF
FF
C0
FF
7F
ENDCHAR
STARTCHAR 00EA
ENCODING 234
SWIDTH 588 0
DWIDTH 10 0
BBX 8 12 1 0
BITMAP
1C
26
40
7E
FF
C3
C3
FF
FF
C0
FF
7F
ENDCHAR
STARTCHAR 00EB
ENCODING 235
SWIDTH 588 0
DWIDTH 10 0
BBX 8 12 1 0
BITMAP
66
66
00
7E
FF
C3
C3
FF
FF
C0
FF
7F
ENDCHAR
STARTCHAR 00EC
ENCODING 236
SWIDTH 294 0
DWIDTH 5 0
BBX 5 12 -1 0
BITMAP
E0
10
08
30
30
30
30
30
30
30
30
30
ENDCHAR
STARTCHAR 00ED
ENCODING 237
SWIDTH 294 0
DWIDTH 5 0
BBX 4 12 1 0
BITMAP
70
C0
00
C0
C0
C0
C0
C0
C0
C0
C0
C0
ENDCHAR
STARTCHAR 00EE
ENCODING 238
SWIDTH 294 0
DWIDTH 5 0
BBX 6 12 -1 0
BITMAP
38
6C
80
30
30
30
30
30
30
30
30
30
ENDCHAR
STARTCHAR 00EF
ENCODING 239
SWIDTH 294 0
DWIDTH 5 0
BBX 5 12 0 0
BITMAP
98
98
00
60
60
60
60
60
60
60
60
60
ENDCHAR
STARTCHAR 00F0
ENCODING 240
SWIDTH 588 0
DWIDTH 10 0
BBX 8 13 1 0
BITMAP
1A
0F
0E
12
7F
FF
C3
C3
C3
C3
C3
FF
7F
ENDCHAR
STARTCHAR 00F1
ENCODING 241
SWIDTH 647 0
DWIDTH 11 0
BBX 8 12 1 0
BITMAP
7F
00
00
DF
FF
C1
C1
C1
C1
C1
C1
C1
ENDCHAR
STARTCHAR 00F2
ENCODING 242
SWIDTH 588 0
DWIDTH 10 0
BBX 8 12 1 0
BITMAP
70
08
04
7F
FF
C3
C3
C3
C3
C3
FF
7F
ENDCHAR
STARTCHAR 00F3
ENCODING 243
SWIDTH 588 0
DWIDTH 10 0
BBX 8 12 1 0
BITMAP
0E
18
00
7F
FF
C3
C3
C3
C3
C3
FF
7F
ENDCHAR
STARTCHAR 00F4
ENCODING 244
SWIDTH 588 0
DWIDTH 10 0
BBX 8 12 1 0
BITMAP
1C
36
40
7F
FF
C3
C3
C3
C3
C3
FF
7F
ENDCHAR
STARTCHAR 00F5
ENCODING 245
SWIDTH 588 0
DWIDTH 10 0
BBX 8 12 1 0
BITMAP
7E
00
00
7F
FF
C3
C3
C3
C3
C3
FF
7F
ENDCHAR
STARTCHAR 00F6
ENCODING 246
SWIDTH 588 0
DWIDTH 10 0
BBX 8 12 1 0
BITMAP
26
26
00
7F
FF
C3
C3
C3
C3
C3
FF
7F
ENDCHAR
STARTCHAR 00F7
ENCODING 247
SWIDTH 705 0
DWIDTH 12 0
BBX 10 9 1 0
BITMAP
0C00
0C00
0000
FFC0
FFC0
0000
0000
0C00
0C00
ENDCHAR
STARTCHAR 00F8
ENCODING 248
SWIDTH 588 0
DWIDTH 10 0
BBX 8 12 1 -2
BITMAP
03
7E
FF
C7
CB
CB
D3
F3
FF
7F
40
C0
ENDCHAR
STARTCHAR 00F9
ENCODING 249
SWIDTH 647 0
DWIDTH 11 0
BBX 8 12 1 0
BITMAP
70
18
04
C1
C1
C1
C1
C1
C1
C1
FF
7D
ENDCHAR
STARTCHAR 00FA
ENCODING 250
SWIDTH 647 0
DWIDTH 11 0
BBX 8 12 1 0
BITMAP
0E
18
00
C1
C1
C1
C1
C1
C1
C1
FF
7D
ENDCHAR
STARTCHAR 00FB
ENCODING 251
SWIDTH 647 0
DWIDTH 11 0
BBX 8 12 1 0
BITMAP
1C
36
40
C1
C1
C1
C1
C1
C1
C1
FF
7D
ENDCHAR
STARTCHAR 00FC
ENCODING 252
SWIDTH 647 0
DWIDTH 11 0
BBX 8 12 1 0
BITMAP
26
26
00
C1
C1
C1
C1
C1
C1
C1
FF
7D
ENDCHAR
STARTCHAR 00FD
ENCODING 253
SWIDTH 529 0
DWIDTH 9 0
BBX 9 16 0 -4
BITMAP
0700
0C00
1000
C180
6100
6300
2300
3200
1600
1C00
1C00
0C00
1800
1800
1000
3000
ENDCHAR
STARTCHAR 00FE
ENCODING 254
SWIDTH 647 0
DWIDTH 11 0
BBX 8 16 1 -4
BITMAP
C0
C0
C0
DF
FF
C1
C1
C1
C1
C1
FF
FF
C0
C0
C0
C0
ENDCHAR
STARTCHAR 00FF
ENCODING 255
SWIDTH 529 0
DWIDTH 9 0
BBX 9 16 0 -4
BITMAP
3600
3600
0000
0000
C180
6300
2300
3200
3600
1C00
1C00
0C00
1800
1800
1000
3000
ENDCHAR
STARTCHAR 0127
ENCODING 295
SWIDTH 647 0
DWIDTH 11 0
BBX 9 12 0 0
BITMAP
6000
FC00
6000
6F80
7F80
6080
6080
6080
6080
6080
6080
6080
ENDCHAR
STARTCHAR 0128
ENCODING 296
SWIDTH 294 0
DWIDTH 5 0
BBX 7 15 -1 0
BITMAP
FE
00
00
10
10
10
10
10
10
10
10
10
10
10
10
ENDCHAR
STARTCHAR 0129
ENCODING 297
SWIDTH 294 0
DWIDTH 5 0
BBX 7 12 -1 0
BITMAP
FE
00
00
30
30
30
30
30
30
30
30
30
ENDCHAR
STARTCHAR 0131
ENCODING 305
SWIDTH 294 0
DWIDTH 5 0
BBX 2 9 1 0
BITMAP
C0
C0
C0
C0
C0
C0
C0
C0
C0
ENDCHAR
STARTCHAR 0132
ENCODING 306
SWIDTH 941 0
DWIDTH 16 0
BBX 12 12 2 0
BITMAP
8030
8030
8030
8030
8030
8030
8030
8030
8C30
8C30
8FF0
87F0
ENDCHAR
STARTCHAR 0133
ENCODING 307
SWIDTH 529 0
DWIDTH 9 0
BBX 7 16 1 -4
BITMAP
C6
C6
00
C6
C6
C6
C6
C6
C6
C6
C6
C6
06
06
0E
0C
ENDCHAR
STARTCHAR 0134
ENCODING 308
SWIDTH 647 0
DWIDTH 11 0
BBX 11 15 1 0
BITMAP
0380
06C0
0020
0100
0100
0100
0100
0100
0100
0100
0100
C100
C100
FF00
7F00
ENDCHAR
STARTCHAR 0135
ENCODING 309
SWIDTH 294 0
DWIDTH 5 0
BBX 6 16 -1 -4
BITMAP
38
6C
80
30
30
30
30
30
30
30
30
30
30
30
70
70
ENDCHAR
STARTCHAR 0137
ENCODING 311
SWIDTH 529 0
DWIDTH 9 0
BBX 9 19 1 -7
BITMAP
C000
C000
C000
C300
C600
CC00
F800
F000
F000
D800
CE00
C700
0080
0000
3800
3800
1800
1000
3000
ENDCHAR
STARTCHAR 0138
ENCODING 312
SWIDTH 529 0
DWIDTH 9 0
BBX 9 9 1 0
BITMAP
C700
CE00
D800
F000
F000
F800
DC00
C600
C380
ENDCHAR
STARTCHAR 013F
ENCODING 319
SWIDTH 588 0
DWIDTH 10 0
BBX 7 12 2 0
BITMAP
80
80
80
80
98
98
80
80
80
80
FE
FE
ENDCHAR
STARTCHAR 0140
ENCODING 320
SWIDTH 470 0
DWIDTH 8 0
BBX 6 12 1 0
BITMAP
C0
C0
C0
C0
CC
CC
C0
C0
C0
C0
C0
C0
ENDCHAR
STARTCHAR 0141
ENCODING 321
SWIDTH 588 0
DWIDTH 10 0
BBX 10 12 0 0
BITMAP
3000
3000
3000
3000
3200
3E00
F000
B000
3000
3000
3FC0
3FC0
ENDCHAR
STARTCHAR 0142
ENCODING 322
SWIDTH 352 0
DWIDTH 6 0
BBX 5 12 0 0
BITMAP
30
30
30
30
30
38
70
F0
30
30
30
30
ENDCHAR
STARTCHAR 0143
ENCODING 323
SWIDTH 823 0
DWIDTH 14 0
BBX 10 15 2 0
BITMAP
0700
0C00
1000
C0C0
C0C0
E0C0
B0C0
B8C0
98C0
8CC0
86C0
83C0
83C0
81C0
80C0
ENDCHAR
STARTCHAR 0144
ENCODING 324
SWIDTH 647 0
DWIDTH 11 0
BBX 8 12 1 0
BITMAP
0E
18
00
DF
FF
C1
C1
C1
C1
C1
C1
C1
ENDCHAR
STARTCHAR 0152
ENCODING 338
SWIDTH 1117 0
DWIDTH 19 0
BBX 16 12 2 0
BITMAP
FFFF
FFFF
8180
8180
8180
81FE
81FE
8180
8180
8180
FFFF
FFFF
ENDCHAR
STARTCHAR 0153
ENCODING 339
SWIDTH 941 0
DWIDTH 16 0
BBX 14 9 1 0
BITMAP
7EF8
FFFC
C30C
C30C
C3FC
C3FC
C300
FFFC
7EFC
ENDCHAR
STARTCHAR 0154
ENCODING 340
SWIDTH 705 0
DWIDTH 12 0
BBX 9 15 2 0
BITMAP
0E00
1800
0000
FF00
FF80
8180
8180
8180
FF80
FF00
8600
8200
8300
8100
8180
ENDCHAR
STARTCHAR 0156
ENCODING 342
SWIDTH 705 0
DWIDTH 12 0
BBX 9 19 2 -7
BITMAP
FF00
FF80
8180
8180
8180
FF80
FF00
8600
8300
8300
8100
8180
0000
0000
1800
1800
0800
1800
1000
ENDCHAR
STARTCHAR 0157
ENCODING 343
SWIDTH 529 0
DWIDTH 9 0
BBX 7 16 1 -7
BITMAP
FE
FE
C6
C0
C0
C0
C0
C0
C0
00
00
E0
E0
60
40
C0
ENDCHAR
STARTCHAR 0158
ENCODING 344
SWIDTH 705 0
DWIDTH 12 0
BBX 9 15 2 0
BITMAP
6600
1C00
0000
FF00
FF80
8180
8180
8180
FF80
FF00
8600
8200
8300
8100
8180
ENDCHAR
STARTCHAR 0159
ENCODING 345
SWIDTH 529 0
DWIDTH 9 0
BBX 7 12 1 0
BITMAP
6E
38
00
FE
FE
C6
C0
C0
C0
C0
C0
C0
ENDCHAR
STARTCHAR 0160
ENCODING 352
SWIDTH 705 0
DWIDTH 12 0
BBX 10 15 1 0
BITMAP
3300
0E00
0000
7F80
7FC0
40C0
4000
4000
7F80
7FC0
00C0
00C0
C0C0
FFC0
7F80
ENDCHAR
STARTCHAR 0161
ENCODING 353
SWIDTH 588 0
DWIDTH 10 0
BBX 7 12 1 0
BITMAP
6E
38
00
7E
FE
C0
FE
7E
02
02
FE
FE
ENDCHAR
STARTCHAR 0178
ENCODING 376
SWIDTH 705 0
DWIDTH 12 0
BBX 11 15 0 0
BITMAP
1900
1900
0000
E060
60C0
30C0
1180
1900
0F00
0E00
0600
0600
0600
0600
0600
ENDCHAR
STARTCHAR 017D
ENCODING 381
SWIDTH 705 0
DWIDTH 12 0
BBX 10 15 1 0
BITMAP
3300
1C00
0000
FFC0
FF80
0300
0200
0600
0C00
0800
1800
3000
6000
7FC0
FFC0
ENDCHAR
STARTCHAR 017E
ENCODING 382
SWIDTH 588 0
DWIDTH 10 0
BBX 8 12 1 0
BITMAP
6E
38
00
FF
FE
0C
08
18
30
20
7F
FF
ENDCHAR
STARTCHAR 0192
ENCODING 402
SWIDTH 470 0
DWIDTH 8 0
BBX 9 16 -1 -4
BITMAP
0780
0780
0400
0C00
3F00
3F00
0C00
0800
0800
1800
1800
1800
1800
1000
F000
F000
ENDCHAR
STARTCHAR 02C6
ENCODING 710
SWIDTH 470 0
DWIDTH 8 0
BBX 6 2 1 10
BITMAP
78
CC
ENDCHAR
STARTCHAR 02C7
ENCODING 711
SWIDTH 470 0
DWIDTH 8 0
BBX 6 2 1 10
BITMAP
CC
78
ENDCHAR
STARTCHAR 02D8
ENCODING 728
SWIDTH 470 0
DWIDTH 8 0
BBX 6 3 1 10
BITMAP
8C
48
78
ENDCHAR
STARTCHAR 02D9
ENCODING 729
SWIDTH 235 0
DWIDTH 4 0
BBX 2 2 1 10
BITMAP
C0
C0
ENDCHAR
STARTCHAR 02DA
ENCODING 730
SWIDTH 529 0
DWIDTH 9 0
BBX 4 4 2 10
BITMAP
F0
90
90
F0
ENDCHAR
STARTCHAR 02DB
ENCODING 731
SWIDTH 352 0
DWIDTH 6 0
BBX 4 4 1 -4
BITMAP
40
C0
C0
70
ENDCHAR
STARTCHAR 02DC
ENCODING 732
SWIDTH 529 0
DWIDTH 9 0
BBX 7 1 1 11
BITMAP
FE
ENDCHAR
STARTCHAR 02DD
ENCODING 733
SWIDTH 588 0
DWIDTH 10 0
BBX 8 2 1 10
BITMAP
77
CC
ENDCHAR
STARTCHAR 0307
ENCODING 775
SWIDTH 235 0
DWIDTH 4 0
BBX 2 2 1 10
BITMAP
C0
C0
ENDCHAR
STARTCHAR 2013
ENCODING 8211
SWIDTH 823 0
DWIDTH 14 0
BBX 10 2 2 4
BITMAP
FFC0
FFC0
ENDCHAR
STARTCHAR 2014
ENCODING 8212
SWIDTH 1000 0
DWIDTH 17 0
BBX 13 2 2 4
BITMAP
FFF8
FFF8
ENDCHAR
STARTCHAR 2018
ENCODING 8216
SWIDTH 294 0
DWIDTH 5 0
BBX 3 5 1 7
BITMAP
60
40
C0
E0
E0
ENDCHAR
STARTCHAR 2019
ENCODING 8217
SWIDTH 294 0
DWIDTH 5 0
BBX 3 5 1 7
BITMAP
E0
E0
60
40
C0
ENDCHAR
STARTCHAR 201A
ENCODING 8218
SWIDTH 294 0
DWIDTH 5 0
BBX 3 5 1 -3
BITMAP
E0
E0
60
40
C0
ENDCHAR
STARTCHAR 201C
ENCODING 8220
SWIDTH 529 0
DWIDTH 9 0
BBX 6 5 1 7
BITMAP
64
4C
C8
EC
EC
ENDCHAR
STARTCHAR 201D
ENCODING 8221
SWIDTH 529 0
DWIDTH 9 0
BBX 6 5 1 7
BITMAP
EC
EC
64
4C
C8
ENDCHAR
STARTCHAR 201E
ENCODING 8222
SWIDTH 529 0
DWIDTH 9 0
BBX 6 5 1 -3
BITMAP
EC
EC
64
4C
C8
ENDCHAR
STARTCHAR 2020
ENCODING 8224
SWIDTH 588 0
DWIDTH 10 0
BBX 8 16 1 -4
BITMAP
18
18
18
FF
FF
18
18
18
18
18
18
18
18
18
18
18
ENDCHAR
STARTCHAR 2021
ENCODING 8225
SWIDTH 588 0
DWIDTH 10 0
BBX 8 16 1 -4
BITMAP
18
18
18
FF
FF
18
18
18
18
18
FF
FF
18
18
18
18
ENDCHAR
STARTCHAR 2022
ENCODING 8226
SWIDTH 470 0
DWIDTH 8 0
BBX 6 6 1 3
BITMAP
78
FC
FC
FC
FC
78
ENDCHAR
STARTCHAR 2026
ENCODING 8230
SWIDTH 823 0
DWIDTH 14 0
BBX 11 2 1 0
BITMAP
E660
E660
ENDCHAR
STARTCHAR 2039
ENCODING 8249
SWIDTH 352 0
DWIDTH 6 0
BBX 4 8 1 0
BITMAP
10
30
60
C0
C0
60
30
10
ENDCHAR
STARTCHAR 203A
ENCODING 8250
SWIDTH 352 0
DWIDTH 6 0
BBX 4 8 1 0
BITMAP
80
C0
60
30
30
60
C0
80
ENDCHAR
STARTCHAR 2044
ENCODING 8260
SWIDTH 588 0
DWIDTH 10 0
BBX 9 12 0 0
BITMAP
0080
0100
0300
0200
0400
0C00
0800
1000
3000
2000
4000
C000
ENDCHAR
STARTCHAR 20AC
ENCODING 8364
SWIDTH 764 0
DWIDTH 13 0
BBX 12 12 0 0
BITMAP
1FF0
3FF0
3030
3000
FFC0
3000
3000
FF00
3000
3030
3FF0
1FF0
ENDCHAR
STARTCHAR 2122
ENCODING 8482
SWIDTH 882 0
DWIDTH 15 0
BBX 13 6 1 6
BITMAP
FA18
2318
23B8
22A8
22C8
2248
ENDCHAR
STARTCHAR 2212
ENCODING 8722
SWIDTH 705 0
DWIDTH 12 0
BBX 10 2 1 4
BITMAP
FFC0
FFC0
ENDCHAR
STARTCHAR F6BE
ENCODING 63166
SWIDTH 294 0
DWIDTH 5 0
BBX 3 13 0 -4
BITMAP
60
60
60
60
60
60
60
60
60
60
60
E0
E0
ENDCHAR
STARTCHAR F6C3
ENCODING 63171
SWIDTH 294 0
DWIDTH 5 0
BBX 3 5 1 -7
BITMAP
E0
E0
40
40
80
ENDCHAR
ENDFONT
